# xmcd
# Copyright (C) 1995-1998 Ti Kan
#
# Track frame offsets:
#       150
#       22557
#       34074
#       56227
#       76755
#       86267
#       109428
#       132503
#       142524
#       166965
#       183338
#
# Disc length: 2683 seconds
#
# Revision: 0
# Processed by: cddbd v1.5.2PL0 Copyright (c) Steve Scherf et al.
# Submitted via: CD-Import v1.0
#
DISCID=7e0a790b
DTITLE=Göldin and Bit-Tuner - Csi: Appenzell
DYEAR=09
DGENRE=
TTITLE0=Das Hus Staht Nöd Zum Verchauf
TTITLE1=Joy Division Country-Club
TTITLE2=Frei
TTITLE3=Shit Face Force
TTITLE4=Steiziit
TTITLE5=Aquariumfisch
TTITLE6=Nacht Ohni Schatte
TTITLE7=Alkohol
TTITLE8=Rock N Roll
TTITLE9=Plastik Welt
TTITLE10=Schöpfer
EXTD=
EXTT0=
EXTT1=
EXTT2=
EXTT3=
EXTT4=
EXTT5=
EXTT6=
EXTT7=
EXTT8=
EXTT9=
EXTT10=
PLAYORDER=
